# xmcd
#
# Track frame offsets:
#	150
#	17447
#	34474
#	50889
#	70711
#	87087
#	103480
#	121567
#	139132
#	156453
#	173668
#	191834
#	211395
#	226978
#	242075
#	256668
#	272859
#	286924
#	307212
#
# Disc length: 4306
#
# Revision: 2
# Processed by: cddbd v1.5.1PL0 Copyright (c) Steve Scherf et al.
# Submitted via: audiograbber 1.80.04
# Normalized: r1:DSETVAR1
#
DISCID=1710d013
DTITLE=Various Artist - Hit Connection 2002 vol 4
DYEAR=2002
DGENRE=Pop
TTITLE0=Renaud and Axelle Red - Manhattan-Kaboul
TTITLE1=Kate Ryan - Mon coeur résiste encore
TTITLE2=D Guetta ft Ch Willis - Love, don't let me go
TTITLE3=Tiziano Ferro - Imbranato
TTITLE4=In - Grid
TTITLE5=Cunnie Williams - Come back to me
TTITLE6=The Sound Bluntz - Billie Jean
TTITLE7=ABS - What you got
TTITLE8=Léa Dan - Coeur de femme
TTITLE9=Orishas - Mujer
TTITLE10=Moony - Dove (I'll be loving you)
TTITLE11=Rohff and Assia - 5,9,1
TTITLE12=Bluestar - Sweet dreams
TTITLE13=David Hallyday - Repenses-y si tu veux
TTITLE14=Sophie Ellis - Bextor
TTITLE15=Karaja - She moves (Lalala)
TTITLE16=Sandrine Collard - Cache-cache dans le noir
TTITLE17=Da Booka - Can you feel the rhythm
TTITLE18=Mad'House - Like a virgin
EXTD=
EXTT0=
EXTT1=
EXTT2=
EXTT3=
EXTT4=
EXTT5=
EXTT6=
EXTT7=
EXTT8=
EXTT9=
EXTT10=
EXTT11=
EXTT12=
EXTT13=
EXTT14=
EXTT15=
EXTT16=
EXTT17=
EXTT18=
PLAYORDER=
